<?xml version="1.0" ?><svg xmlns="http://www.w3.org/2000/svg" xmlns:xlink="http://www.w3.org/1999/xlink" version="1.1" viewBox="0 0 512 512" style="enable-background:new 0 0 512 512;" xml:space="preserve"><g id="_x31_2_x2C__Infographic_x2C__business_and_finance_x2C__analytics_x2C__statistics_x2C__chart_x2C__bar"><g><g><path style="fill:#283954;" d="M511,191c0-16.542-13.458-30-30-30s-30,13.458-30,30c0,13.036,8.361,24.152,20,28.28v15.222     l-70.689,31.422c-12.543-22.556-30.214-41.836-51.416-56.296C369.431,186.796,381,156.974,381,126C381,57.075,324.925,1,256,1     S131,57.075,131,126c0,16.126,3.044,31.5,8.571,45.603l-111.934,39.98C23.656,213.004,21,216.774,21,221v21.72     C9.361,246.848,1,257.964,1,271c0,16.542,13.458,30,30,30s30-13.458,30-30c0-13.036-8.361-24.152-20-28.28v-14.673     l107.413-38.365c4.243,7.148,9.174,13.832,14.705,19.962C118.343,240.215,91,291.338,91,346c0,90.981,74.019,165,165,165     s165-74.019,165-165c0-21.974-4.29-42.903-12.05-62.03l76.112-33.832c3.611-1.604,5.938-5.186,5.938-9.138v-21.72     C502.639,215.152,511,204.036,511,191z M31,281c-5.514,0-10-4.486-10-10s4.486-10,10-10s10,4.486,10,10S36.514,281,31,281z      M266,490.649V451c0-5.522-4.478-10-10-10s-10,4.478-10,10v39.649C174,485.72,116.28,428,111.351,356H151c5.522,0,10-4.478,10-10     s-4.478-10-10-10h-39.647c3.18-45.688,27.999-87.537,66.73-112.276C199.512,240.816,226.638,251,256,251c5.522,0,10-4.478,10-10     s-4.478-10-10-10c-54.389,0-99.48-41.512-104.524-95H191c5.522,0,10-4.478,10-10s-4.478-10-10-10h-39.521     c4.74-49.931,44.59-89.781,94.521-94.521V61c0,5.522,4.478,10,10,10s10-4.478,10-10V21.479     c49.931,4.74,89.781,44.59,94.521,94.521H321c-5.522,0-10,4.478-10,10s4.478,10,10,10h39.512     c-2.277,23.698-12.585,46.031-29.211,63.157C308.695,187.546,283.086,181,256,181c-5.522,0-10,4.478-10,10s4.478,10,10,10     c76.187,0,139.502,59.015,144.652,135H361c-5.522,0-10,4.478-10,10s4.478,10,10,10h39.649C395.72,428,338,485.72,266,490.649z      M481,201c-5.514,0-10-4.486-10-10s4.486-10,10-10s10,4.486,10,10S486.514,201,481,201z"/></g><g><path style="fill:#5596FB;" d="M256,231c-63.411,0-115,51.589-115,115s51.589,115,115,115s115-51.589,115-115     S319.411,231,256,231z M256,441c-52.383,0-95-42.617-95-95s42.617-95,95-95s95,42.617,95,95S308.383,441,256,441z"/><path style="fill:#5596FB;" d="M256,201c41.355,0,75-33.645,75-75s-33.645-75-75-75s-75,33.645-75,75S214.645,201,256,201z      M256,71c30.327,0,55,24.673,55,55s-24.673,55-55,55s-55-24.673-55-55S225.673,71,256,71z"/></g></g></g><g id="Layer_1"/></svg>